# xmcd CD database file
#
# Track frame offsets:
#	150
#	14180
#	27358
#	41769
#	56943
#	73865
#	85697
#	102687
#	119225
#	132145
#	142390
#	154525
#	163543
#	171855
#	180454
#	197072
#	213060
#	225348
#	236740
#	250075
#	267113
#	281333
#	295997
#
# Disc length: 4114 seconds
#
# Revision: 0
# Processed by: cddbd v1.5.2PL0 Copyright (c) Steve Scherf et al.
# Submitted via: CDex 1.70beta2
#
DISCID=5b101017
DTITLE=Jones Country - Jones Country JCY-028
DYEAR=0000
DGENRE=Country
TTITLE0=Rex Allen Jr/Don't Go Near The Indians
TTITLE1=Johnny Cash/Man In Black
TTITLE2=Johnny Cash/Ragged Old Flag
TTITLE3=Rosanne Cash/If You Change Your Mind
TTITLE4=Patsy Cline/Faded Love
TTITLE5=Lacy J Dalton/Hard Times
TTITLE6=Lee Greenwood/Fool's Gold
TTITLE7=Merle Haggard/Leonard
TTITLE8=Merle Haggard/Misery And Gin
TTITLE9=Merle Haggard/Movin' On
TTITLE10=Reba McEntire/Why Do We Want (What We Know We Can't Have)
TTITLE11=Roger Miller/Atta Boy Girl
TTITLE12=Roger Miller/Do-Wacka-Do
TTITLE13=Roger Miller/England Swings
TTITLE14=Ray Price/I Won't Mention It Again
TTITLE15=Judy Rodman/Girls Ride Horses Too
TTITLE16=Roy Rogers/Hoppy, Gene And Me
TTITLE17=Sgt Barry Sadler/Ballad Of The Green Berets
TTITLE18=Statler Brothers/More Than A Name On A Wall
TTITLE19=Ray Stevens/Ahab, The Arab
TTITLE20=Ray Stevens/Gitarzan
TTITLE21=Ray Stevens/Streak
TTITLE22=Leroy Van Dyke/Auctioneer
EXTD=YEAR: 0000
EXTT0=
EXTT1=
EXTT2=
EXTT3=
EXTT4=
EXTT5=
EXTT6=
EXTT7=
EXTT8=
EXTT9=
EXTT10=
EXTT11=
EXTT12=
EXTT13=
EXTT14=
EXTT15=
EXTT16=
EXTT17=
EXTT18=
EXTT19=
EXTT20=
EXTT21=
EXTT22=
PLAYORDER=
